<svg width="94" height="94" viewBox="0 0 94 94" fill="none" xmlns="http://www.w3.org/2000/svg">
<rect x="0.5" y="0.5" width="93" height="93" rx="46.5" fill="#0A0A0A"/>
<rect x="0.5" y="0.5" width="93" height="93" rx="46.5" stroke="#262626"/>
<path d="M50.6931 11.7559C50.6931 11.7559 44.5008 9.08677 41.8336 12.1635C40.4476 13.7627 39.3234 17.2927 43.6441 20.3666C44.3312 20.856 44.8798 21.4413 44.9331 23.4481C44.9331 23.4481 51.8842 21.2579 52.7846 26.7045C52.7846 26.7045 54.1124 23.5042 56.2795 21.5373C57.3893 20.5301 58.75 18.1669 58.75 15.6166C58.75 14.0145 57.7246 11.8167 53.212 11.0385C53.212 11.0385 56.1254 13.0149 55.2822 16.7188C54.9818 18.0405 54.9401 19.0592 52.3669 21.3225C52.3669 21.3225 53.4601 16.4157 52.4861 15.1415C51.9414 14.4288 51.3957 13.5128 49.0667 13.9423C49.0667 13.9423 51.5557 16.7758 49.4796 18.2809C48.5017 18.9898 45.9711 18.967 44.685 17.4628C43.9629 16.6181 42.6652 11.4452 50.6931 11.7559Z" fill="#DFD1B3"/>
<path d="M37.2523 50.3211C37.2523 50.3211 37.5449 47.5095 35.8096 46.2265C35.8096 46.2265 35.9483 48.3777 36.2409 49.1691C36.2409 49.1691 35.7225 47.1071 35.2735 46.422C34.9174 45.8783 34.6367 44.7747 34.7221 43.7954C34.7221 43.7954 32.9344 44.5678 34.7881 48.3426C34.7881 48.3426 35.2422 49.301 35.2954 49.6056C35.2954 49.6056 34.7415 48.78 34.0633 48.1984C33.6456 47.8406 33.6405 47.6774 33.4536 46.9515C33.3885 46.6991 33.1128 46.7294 33.1136 47.0578C33.1179 48.2344 33.446 50.1702 34.7694 51.4247C35.1931 51.8261 35.8079 53.1261 36.2451 53.3291C36.4777 53.4373 36.9073 53.5721 37.21 52.7199C37.21 52.7199 37.7724 51.3023 36.8887 51.0565C36.8887 51.0565 36.4836 50.8828 36.2477 51.3753C36.2477 51.3753 36.3618 50.4103 37.2531 50.3211H37.2523Z" fill="#DFD1B3"/>
<path d="M39.198 50.9942C39.198 50.9942 39.953 50.9373 40.3565 51.9713C40.3565 51.9713 39.6929 51.7149 39.197 51.9713C38.701 52.2277 38.3717 52.9298 38.4728 53.4818C38.5749 54.0347 39.1373 54.9382 40.3305 54.1979C41.5237 53.4576 41.9329 53.1704 42.6562 52.8813C43.3794 52.5923 45.5395 52.2604 46.7846 51.2981C48.0298 50.3368 48.572 49.2217 48.6144 47.8119C48.6568 46.4021 48.3977 46.5187 49.1363 45.5033C49.1363 45.5033 47.4588 45.1593 46.4158 46.8292C45.316 48.5886 44.4715 49.8184 44.4715 49.8184C44.4715 49.8184 45.7744 47.7821 45.9873 46.4972C46.2222 45.0837 46.3879 44.4423 47.8603 43.2525C49.3338 42.0628 45.9805 43.0763 44.7199 44.4814C43.4584 45.8875 43.8648 47.2571 42.6176 48.9597C42.6176 48.9597 43.623 46.4283 43.4863 45.177C43.3495 43.9257 42.8902 46.7201 41.6893 47.8688C40.4884 49.0175 39.5889 48.8236 39.198 50.9942Z" fill="#DFD1B3"/>
<path d="M34.5718 52.3504C35.0983 52.2078 35.641 53.7184 34.8549 54.3696C34.0688 55.0208 33.9671 52.5136 34.5718 52.3504Z" fill="#DFD1B3"/>
<path d="M42.0035 55.3987C41.1636 54.743 42.0256 53.3111 42.8222 53.4144C43.6188 53.5176 44.0366 54.4655 43.6488 54.9416C43.2611 55.4177 42.4566 55.7516 42.0035 55.3978V55.3987Z" fill="#DFD1B3"/>
<path d="M37.3313 54.6717C37.1866 54.5533 35.4882 54.2635 34.581 54.7483C33.7426 55.1963 32.1653 57.0465 32.0483 57.5751C31.9929 57.8241 32.7574 58.815 33.8165 58.7466C34.6641 58.6915 34.5041 58.1354 36.2866 56.9873C37.4319 56.2494 37.4678 54.785 37.3303 54.6717H37.3313Z" fill="#DFD1B3"/>
<path d="M35.2509 57.4663C35.2509 57.4663 36.7288 56.5068 36.8688 56.0256C37.0683 55.3403 36.8754 54.9738 37.6498 54.616C38.4251 54.2583 39.6609 54.5198 40.4561 55.0185C41.2513 55.5172 42.7736 55.5745 43.4582 54.8484C44.1428 54.1222 44.3149 53.5088 43.6454 52.7185C42.8862 51.8222 45.1469 52.7117 45.32 53.4233C45.493 54.1348 44.8132 55.2256 44.3461 55.8467C44.3461 55.8467 46.0225 55.3908 45.928 56.3785C45.8287 57.4225 41.9217 56.1345 39.4094 56.1092C38.7154 56.1024 38.3712 56.6672 38.1452 56.9462C37.9193 57.2252 37.3548 58.0777 35.25 57.4653L35.2509 57.4663Z" fill="#DFD1B3"/>
<path d="M46.0319 53.3038C46.0319 53.3038 47.0567 54.5246 45.9318 55.7198C45.9318 55.7198 48.1211 55.8576 47.6781 57.3452C47.6781 57.3452 53.3639 58.0383 55.6434 59.8182C55.6434 59.8182 55.798 57.9014 53.1161 57.166C53.1161 57.166 54.2063 57.3698 55.2737 58.0136C56.3421 58.6575 57.2588 59.1409 58.7861 58.4636C60.3133 57.7862 60.3351 57.0794 60.3351 57.0794C60.3351 57.0794 57.909 58.3907 56.8128 57.5943C55.7276 56.8067 55.8188 56.6619 55.2935 56.2632C54.7692 55.8645 54.1974 55.7956 54.1974 55.7956C54.1974 55.7956 55.3441 56.0358 56.354 55.8025C57.3639 55.5691 58.5928 55.4323 59.8366 56.5015C61.0299 57.5263 62.2221 58.2667 63.9605 56.7496C64.2816 56.469 65.0071 55.5544 65.1537 55.1438C65.3004 54.7333 62.4015 58.5069 60.4878 55.1232C58.7127 51.9846 56.8674 51.325 54.8832 51.511C53.7167 51.6203 52.461 51.8999 50.8485 53.6435C50.8485 53.6435 51.8406 51.7493 53.3034 51.2364C54.7663 50.7234 56.8634 51.1458 56.8634 51.1458C56.8634 51.1458 55.3926 50.0274 53.3104 50.2499C51.2281 50.4724 51.3302 51.1133 49.8466 51.1596C49.8466 51.1596 49.1518 51.2432 48.9586 51.4067C48.9586 51.4067 48.7346 51.2432 50.4789 50.6309C52.2232 50.0175 52.356 48.0682 52.356 48.0682C52.356 48.0682 51.6573 49.8078 49.6097 49.8689C48.5562 49.9004 48.0894 50.3946 47.1092 51.894C46.8664 52.2661 46.0299 53.3068 46.0299 53.3068L46.0319 53.3038Z" fill="#DFD1B3"/>
<path d="M30.0196 57.9061C29.0107 58.3075 28.6143 59.2594 28.9676 60.5231C29.3209 61.7877 30.4002 62.0323 30.5997 61.9869C30.7983 61.9406 29.4958 60.3495 30.2235 59.9352C31.0989 59.437 31.3634 61.4089 31.4205 62.053C31.4768 62.6972 34.269 63.3028 34.9272 62.8846C35.5855 62.4663 32.8039 61.6476 33.5676 60.9788C34.3182 60.3228 34.9475 62.2937 36.3387 62.3973C37.73 62.4999 38.4304 61.5253 38.4541 60.2972C38.4779 59.0691 37.3591 58.2602 36.4969 58.3815C35.5214 58.5177 34.3727 58.9408 33.1836 58.8876C31.9944 58.8343 32.1175 57.0706 30.0196 57.9061Z" fill="#DFD1B3"/>
<path d="M32.0464 62.9773C32.0464 62.9773 32.1816 63.3082 32.2898 63.7459C32.3971 64.1835 33.2871 66.5001 33.5332 66.7226C33.7794 66.945 37.0579 67.6693 39.2481 67.0517C41.4374 66.4341 41.4491 63.7513 42.4247 62.3226C43.4003 60.893 44.779 59.6542 44.8574 59.3007C44.9287 58.9797 44.3678 59.3088 44.201 59.4164C43.9377 59.5864 42.7962 60.2592 42.0126 61.5034C41.2291 62.7476 40.8215 64.7604 39.6061 65.3897C39.6061 65.3897 38.9118 64.8915 38.4203 63.6789C37.9289 62.4664 37.9334 65.9169 38.1246 66.4007C38.3158 66.8835 37.5674 66.284 37.5674 66.284C37.5674 66.284 37.396 66.5987 37.0318 66.5815C36.6675 66.5643 36.5656 66.1402 36.5656 66.1402C36.5656 66.1402 36.259 66.4929 35.9948 66.4658C35.7315 66.4386 35.6206 65.9151 35.6206 65.9151C35.6206 65.9151 35.3889 66.3835 35.0363 66.3726C34.6838 66.3618 34.0165 64.7161 33.7433 64.1437C33.7433 64.1437 38.6665 63.9366 39.0795 62.593C39.0795 62.593 40.542 64.1238 40.7007 64.1311C40.8603 64.1383 40.294 61.4889 40.294 61.4889C40.294 61.4889 42.9856 59.2509 43.1686 59.0267C43.3516 58.8024 41.7142 58.75 41.7142 58.75C41.7142 58.75 39.7296 60.7782 38.2689 62.1363C36.9831 63.3317 35.2068 63.6663 32.0455 62.9773H32.0464Z" fill="#DFD1B3"/>
<path d="M33.047 68.4882C31.8859 69.1263 32.3656 70.6277 32.1027 71.5162C31.8398 72.4038 31.2247 73.3917 31.2247 73.3917C31.2247 73.3917 32.4856 73.1764 32.7312 71.9839C32.7312 71.9839 32.6583 74.2666 29.9091 74.2841C29.9091 74.2841 30.4167 75.6997 32.5345 74.6972C32.5345 74.6972 31.1882 75.3743 31.8369 77.9239C31.8369 77.9239 31.8686 76.8435 32.7648 76.1099C33.6611 75.3762 34.1716 74.7985 34.5429 73.9197C34.9143 73.0409 33.9672 76.4479 33.5632 76.9156C33.1602 77.3832 35.0477 76.5863 35.2022 74.3981C35.2022 74.3981 34.873 76.0154 34.9143 76.8922C34.9987 78.7258 37.3545 78.9508 37.3545 78.9508C37.3545 78.9508 35.5582 76.937 36.0927 74.9885C36.0927 74.9885 35.9219 78.3857 38.5703 78.983C38.5703 78.983 36.4276 75.916 36.8795 74.3094C36.8795 74.3094 37.8238 76.2774 38.2297 77.9249C38.6356 79.5724 39.7237 81.3621 42.5008 81.1673C42.5008 81.1673 43.9353 81.0776 44.5629 80.043C44.5629 80.043 40.6046 80.6314 40.0519 78.3633C39.4992 76.0952 39.1413 75.689 39.1413 75.689C39.1413 75.689 40.3494 78.5065 42.7474 77.5157C42.7474 77.5157 39.3879 75.6802 39.4522 72.7915C39.4522 72.7915 39.8466 77.4495 44.68 77.428C44.68 77.428 41.7907 76.6925 41.3205 74.8102C40.8992 73.1257 40.3244 72.0365 39.4723 70.6209C39.4723 70.6209 41.7868 74.7469 42.9182 74.5929C42.9182 74.5929 42.3271 73.7015 41.9384 72.6863C41.5498 71.6701 41.4433 70.729 41.2821 70.4845C41.2821 70.4845 42.2935 74.1506 44.6608 75.1317C44.6608 75.1317 43.919 73.5797 43.9852 72.0365C44.0514 70.501 43.232 68.95 43.232 68.95C43.232 68.95 43.7597 72.4992 46.9772 71.7656C46.9772 71.7656 43.7962 69.895 45.0235 67.8228C46.2508 65.7505 47.3745 67.7838 47.3745 67.7838C47.3745 67.7838 48.121 65.392 47.1931 64.5814C47.1931 64.5814 47.8312 66.8407 49.0988 66.9391C49.0988 66.9391 48.1901 64.4928 49.6036 63.1414L48.2774 62.1954C48.2774 62.1954 51.1456 62.6904 51.5573 65.9639C51.5573 65.9639 53.5043 64.7266 51.8154 62.1574C51.8154 62.1574 52.3662 62.099 52.8278 62.4088C53.3747 62.7771 54.4773 62.5257 54.4773 62.5257C54.4773 62.5257 54.1913 61.7541 53.417 61.2904C51.8557 60.357 46.4015 59.8182 46.4015 59.8182C46.4015 59.8182 43.8221 62.3172 42.9988 63.99C42.1755 65.6628 41.7724 67.4945 40.1901 68.4638C38.6068 69.4332 35.1331 68.2544 33.45 68.3547C33.3435 68.3606 33.14 68.4395 33.046 68.4902L33.047 68.4882Z" fill="#DFD1B3"/>
<path d="M32.0327 69.8579C32.182 71.351 30.9773 71.5682 30.9773 71.5682C31.7951 70.5241 31.6256 69.4319 31.6256 69.4319L32.0327 69.8579Z" fill="#DFD1B3"/>
<path d="M38.7236 58.6673C39.3072 58.8676 39.2394 58.1192 39.5391 57.744C39.8387 57.3688 40.443 57.3561 41.2172 57.5221C42.2656 57.747 42.7215 57.8481 44.5628 58.0848C46.7518 58.3667 48.3052 58.5465 50.058 58.904C52.1184 59.3234 55.9385 60.2172 56.4111 63.6136C56.8837 67.01 56.4435 67.6661 54.4175 68.3193C52.3925 68.9724 50.3921 66.1359 50.3921 66.1359C50.3921 66.1359 49.9775 65.6644 50.0158 66.4747C50.0541 67.285 51.1693 69.9586 54.6435 69.3398C58.1178 68.721 57.6992 64.7765 57.6304 64.0605C57.5715 63.4506 57.4948 60.1258 53.4046 58.7282C49.2062 57.2942 46.7577 57.5535 42.6861 56.9828C40.9706 56.7422 40.6464 56.587 40.0333 56.6175C39.4202 56.6479 39.1205 56.8738 38.7236 57.5564C38.3266 58.239 38.4052 58.5573 38.7236 58.6673Z" fill="#DFD1B3"/>
<path d="M30.9773 67.0586C30.9773 67.0586 29.656 70.1625 29.2763 71.243C28.8966 72.3236 27.7785 74.835 24.824 74.7716C21.8101 74.7062 20.5685 73.6335 20.5685 73.6335C20.5685 73.6335 23.5 74.1586 25.76 71.5222C25.76 71.5222 21.7195 73.0205 20.1476 70.4739C19.1548 68.8643 18.4914 66.8351 17.237 65.6745C16.1875 64.7033 14.8324 63.8326 13.8864 63.776C13.8864 63.776 18.1511 63.736 20.7743 65.9107C20.7743 65.9107 19.7688 62.8068 16.6322 62.3207C16.6322 62.3207 19.7111 60.9336 23.5934 63.5593C27.4756 66.185 29.8537 64.6369 29.8537 64.6369L30.9773 67.0596V67.0586Z" fill="#DFD1B3"/>
<path d="M45.9319 72.7932C45.9173 72.7631 47.7461 72.892 49.0948 72.3462C49.0948 72.3462 48.1541 69.7227 48.9983 69.4319C48.9983 69.4319 51.5001 72.859 56.234 71.4099C56.234 71.4099 57.5636 72.8525 58.6073 73.6664C59.651 74.4804 61.7019 75.0036 62.2966 76.1601C62.8913 77.3166 63.1992 78.554 62.9168 79.9825C62.9168 79.9825 61.9533 77.23 59.0936 76.3521C56.234 75.4741 55.2568 75.5513 54.449 76.1554C53.6421 76.7586 54.3998 80.0794 58.1438 81.0562C58.1438 81.0562 56.5108 81.9313 54.265 81.4891C52.0192 81.0468 51.3553 79.9204 50.4892 78.2115C49.6231 76.5026 47.532 75.6087 47.532 75.6087C47.532 75.6087 49.5192 77.4644 49.4473 80.1208C49.3753 82.7773 48.3417 84.3864 48.3417 84.3864C48.3417 84.3864 48.2879 82.751 47.889 80.8774C47.4902 79.0038 46.0148 77.5603 46.0148 77.5603C46.0148 77.5603 46.6514 74.2367 45.9328 72.7932H45.9319Z" fill="#DFD1B3"/>
<path d="M30.1622 12.8192C30.1622 12.8192 30.3653 16.4106 28.2965 18.08C26.2277 19.7494 20.9526 21.0855 20.6744 27.695C20.3961 34.3055 23.5623 36.7017 23.5623 36.7017C23.5623 36.7017 18.6915 38.3361 16.8306 35.3248C14.673 31.8344 15.4316 30.1291 15.9861 28.7852C16.5417 27.4414 18.8965 25.8876 18.8965 25.8876C18.8965 25.8876 13.8216 27.0148 12.9625 33.293C12.1033 39.5711 15.1914 42.0276 19.2783 42.5261C23.3651 43.0246 23.6883 42.0101 25.2025 43.147C26.7168 44.2839 28.0319 47.0095 25.7864 47.6955C23.5409 48.3806 21.516 48.3184 19.4159 46.5003C17.3149 44.6823 15.5185 42.4367 15.5185 42.4367C15.5185 42.4367 16.5251 48.0716 20.7828 50.2598C25.0405 52.4481 32.6938 50.4095 32.6938 50.4095C32.6938 50.4095 31.6462 47.9015 31.6658 46.1806C31.6853 44.4598 33.1136 44.3917 33.1136 44.3917C33.1136 44.3917 32.2701 40.091 31.1346 37.1331C29.9992 34.1753 27.491 33.2599 26.9531 29.756C26.3419 25.7778 27.3651 23.06 29.5882 20.0875C32.4712 16.2318 30.1622 12.8182 30.1622 12.8182V12.8192Z" fill="#DFD1B3"/>
<path d="M58.9617 68.475C58.9617 68.475 63.2201 73.7316 66.5647 73.7044C69.9093 73.6781 70.617 70.2535 70.617 70.2535C70.617 70.2535 68.3377 71.6339 66.1337 70.345C63.9287 69.0572 63.3415 67.6009 63.3415 67.6009C63.3415 67.6009 64.2741 68.6016 66.1045 67.9698C67.9349 67.338 68.8336 65.3814 71.0706 65.0232C73.3075 64.665 76.0837 67.2524 75.5445 68.7564C75.0052 70.2603 74.8415 70.7811 74.8415 70.7811C74.8415 70.7811 77.0031 70.4307 77.2685 67.8433C77.5348 65.2568 76.766 63.5903 74.4086 62.428L70.4871 60.6563C70.4871 60.6563 77.165 60.3711 79.8047 58.7941C82.4444 57.2171 84.1026 54.3143 84.3445 51.6412C84.5863 48.9682 83.8466 45.6526 80.3891 45.9505C78.6905 46.0965 77.581 46.5248 77.581 46.5248C77.581 46.5248 80.6272 46.6611 81.2596 48.2887C81.9419 50.0429 80.7034 53.8928 78.9022 54.7826C77.1001 55.6723 72.7655 56.0217 69.4275 54.2228C66.0885 52.4239 66.9797 51.5614 64.0417 51.3531C64.0417 51.3531 61.801 51.4514 60.8806 52.1669C60.8806 52.1669 61.8518 54.7173 63.158 54.18C64.4642 53.6417 64.8698 53.5609 65.2877 53.667C65.2877 53.667 68.2191 54.8614 65.49 57.6318C62.7609 60.4023 61.2109 58.6987 61.2109 58.6987C61.2109 58.6987 61.1629 59.86 58.75 60.2815C58.75 60.2815 61.0218 64.3613 58.9627 68.476L58.9617 68.475Z" fill="#DFD1B3"/>
<path d="M67.2954 66.9472C67.2954 66.9472 64.3456 70.2904 66.5697 71.161C68.7939 72.0316 61.3885 71.2354 61.3885 71.2354L60.8864 66.2273L67.2954 66.9462V66.9472Z" fill="#DFD1B3"/>
<path d="M46.7789 37.586C45.797 38.8772 43.307 39.1177 42.5359 42.3245C41.7648 45.5303 40.1221 47.1572 39.1265 47.9346C38.1309 48.712 38.5848 45.8959 36.0821 44.6778C36.0821 44.6778 35.109 39.6796 32.1037 35.1105C29.0983 30.5414 29.1823 24.4964 32.3399 21.2896C35.4965 18.0829 37.393 17.1429 38.0645 14.9974C38.1446 14.7424 38.5038 15.6997 38.5194 15.9662C38.5848 17.0986 38.5897 18.0906 37.2583 19.833C36.2295 21.179 35.0885 23.5487 36.0529 25.1612C36.0529 25.1612 40.3827 25.2497 40.0587 22.4596C39.9903 21.8746 39.8127 19.7589 39.8127 19.7589C39.8127 19.7589 40.5955 21.1136 41.759 21.8544C42.9312 22.601 43.8917 24.3318 42.0352 27.8946C40.1787 31.4573 41.8331 33.0679 41.8331 33.0679C41.8331 33.0679 45.592 32.202 46.7311 30.9782C47.8711 29.7544 48.5749 28.1418 47.5861 27.3452C46.5974 26.5486 44.3524 28.545 44.3524 28.545C44.3524 28.545 44.4432 25.2372 47.4309 24.6301C49.7803 24.1519 51.1537 25.7991 51.2659 27.7301C51.3411 29.0318 50.8052 30.7473 49.2972 32.6811C47.9609 34.3937 47.8702 36.1544 46.7809 37.587L46.7789 37.586Z" fill="#DFD1B3"/>
<path d="M58.9226 20.6809C58.9226 20.6809 56.1757 22.8113 54.7344 26.9627C53.2257 31.3081 51.2095 32.3756 49.9675 35.018C49.3513 36.3303 49.0355 37.8393 47.2524 39.4349C45.268 41.2113 44.8636 42.5264 44.8636 42.5264C44.8636 42.5264 48.1507 40.0412 49.7355 41.184C49.7355 41.184 48.014 42.8624 47.779 43.8659C47.779 43.8659 50.111 42.4096 50.7291 43.6193C50.7291 43.6193 49.6122 44.2679 49.6642 45.182C49.7162 46.0951 50.0542 47.4592 49.3937 48.0682C49.3937 48.0682 53.2603 47.2925 55.5085 43.9027C57.7566 40.5128 58.8475 39.9301 59.664 39.6279C60.4804 39.3257 68.0009 37.2472 69.8235 34.3995C71.6461 31.5519 72.8256 27.1858 69.2555 22.4554C65.6854 17.725 66.445 14.9546 66.445 14.9546C66.445 14.9546 62.1721 16.8496 64.0274 23.7743C65.8828 30.699 60.5132 31.7166 60.5132 31.7166C60.5132 31.7166 56.2354 26.8799 58.9226 20.6809Z" fill="#DFD1B3"/>
<path d="M54.4792 48.7593C54.4792 48.7593 56.8074 45.6398 57.923 43.4303C59.3012 40.7005 65.8318 40.8905 69.2118 37.9278C72.5928 34.9642 73.4818 33.0245 73.7921 25.7665C73.833 24.8147 74.6373 22.4318 74.6373 22.4318C74.6373 22.4318 76.1936 29.1559 79.7164 32.1146C83.1944 35.0354 83.0573 42.1053 79.5165 43.403C75.9756 44.7007 72.1425 43.6154 69.9447 44.2223C67.7755 44.8215 68.1734 46.0967 68.1734 46.0967C68.1734 46.0967 72.0026 48.4992 75.5654 48.0793C75.5654 48.0793 70.6196 52.2617 67.5985 51.0536C63.2638 49.3205 62.7383 49.263 58.5674 50.6464C58.5674 50.6464 57.1053 48.5489 54.4773 48.7603L54.4792 48.7593Z" fill="#DFD1B3"/>
<path d="M27.542 61.2832C26.8983 61.417 26.5484 61.3476 24.9313 60.9135C23.3142 60.4795 18.9605 58.3746 16.0871 58.8086C13.2137 59.2426 13.874 62.1556 14.1605 62.7182C14.4479 63.2844 14.8318 62.9413 14.8318 62.6496C14.8318 61.7584 14.0329 59.7521 16.3158 59.367C18.5987 58.981 22.923 60.7651 24.7247 61.4771C26.3244 62.1084 27.0333 61.9085 27.542 61.7507C27.9167 61.634 27.7744 61.236 27.542 61.2849V61.2832Z" fill="#DFD1B3"/>
<path d="M32.8279 51.5013C32.8279 51.5013 26.1403 53.9901 21.4822 52.3058C16.8241 50.6214 14.895 48.0384 14.7167 47C14.7167 47 13.1147 50.6922 14.7167 52.9592C16.3187 55.2252 17.6546 55.6466 17.6546 55.6466C17.6546 55.6466 14.5985 56.1518 12.8182 54.3555C12.8182 54.3555 12.8615 56.2739 14.1827 56.7978C15.0329 57.1343 14.1236 56.0958 18.9009 56.7978C23.6782 57.4997 24.0477 58.7198 26.3482 58.7497C28.6486 58.7795 27.693 56.836 30.3836 56.1359C32.7649 55.5161 33.1136 53.5045 33.1136 53.5045L32.8289 51.5023L32.8279 51.5013Z" fill="#DFD1B3"/>
<path d="M19.2273 42.1066C19.2273 42.1066 20.4405 42.2527 21.965 42.9161C25.5596 44.4798 22.8276 48.4876 20.8751 47.4069C16.7312 45.114 24.9569 50.2046 24.9569 50.2046L28.8409 46.7173L27.345 40.5909L19.2273 42.1066Z" fill="#DFD1B3"/>
</svg>
